HIERARCHY
ROOT hip
{
  OFFSET 0 0 0
  CHANNELS 6 Xposition Yposition Zposition Zrotation Yrotation Xrotation
  JOINT abdomen
  {
    OFFSET 0 20.6881 -0.73152
    CHANNELS 3 Zrotation Xrotation Yrotation
    JOINT chest
    {
      OFFSET 0 11.7043 -0.48768
      CHANNELS 3 Zrotation Xrotation Yrotation
      JOINT neck
      {
        OFFSET 0 22.1894 -2.19456
        CHANNELS 3 Zrotation Xrotation Yrotation
        JOINT head
        {
          OFFSET -0.24384 7.07133 1.2192
          CHANNELS 3 Zrotation Xrotation Yrotation
          JOINT leftEye
          {
            OFFSET 4.14528 8.04674 8.04672
            CHANNELS 3 Zrotation Xrotation Yrotation
            End Site
            {
              OFFSET 1 0 0
            }
          }
          JOINT rightEye
          {
            OFFSET -3.6576 8.04674 8.04672
            CHANNELS 3 Zrotation Xrotation Yrotation
            End Site
            {
              OFFSET 1 0 0
            }
          }
        }
      }
      JOINT rCollar
      {
        OFFSET -2.68224 19.2634 -4.8768
        CHANNELS 3 Zrotation Xrotation Yrotation
        JOINT rShldr
        {
          OFFSET -8.77824 -1.95073 1.46304
          CHANNELS 3 Zrotation Xrotation Yrotation
          JOINT rForeArm
          {
            OFFSET -28.1742 -1.7115 0.48768
            CHANNELS 3 Zrotation Xrotation Yrotation
            JOINT rHand
            {
              OFFSET -22.5879 0.773209 7.07136
              CHANNELS 3 Zrotation Xrotation Yrotation
              JOINT rThumb1
              {
                OFFSET -1.2192 -0.487915 3.41376
                CHANNELS 3 Zrotation Xrotation Yrotation
                JOINT rThumb2
                {
                  OFFSET -3.37035 -0.52449 3.41376
                  CHANNELS 3 Zrotation Xrotation Yrotation
                  End Site
                  {
                    OFFSET -1.78271 -1.18214 1.43049
                  }
                }
              }
              JOINT rIndex1
              {
                OFFSET -7.75947 0.938293 5.60832
                CHANNELS 3 Zrotation Xrotation Yrotation
                JOINT rIndex2
                {
                  OFFSET -2.54057 -0.884171 1.56538
                  CHANNELS 3 Zrotation Xrotation Yrotation
                  End Site
                  {
                    OFFSET -1.62519 -0.234802 1.16502
                  }
                }
              }
              JOINT rMid1
              {
                OFFSET -8.24714 1.18213 3.41376
                CHANNELS 3 Zrotation Xrotation Yrotation
                JOINT rMid2
                {
                  OFFSET -3.10165 -0.590103 1.0647
                  CHANNELS 3 Zrotation Xrotation Yrotation
                  End Site
                  {
                    OFFSET -2.48547 -0.328903 0.83742
                  }
                }
              }
              JOINT rRing1
              {
                OFFSET -8.82822 0.546677 1.51678
                CHANNELS 3 Zrotation Xrotation Yrotation
                JOINT rRing2
                {
                  OFFSET -2.60934 -0.819778 -0.0198488
                  CHANNELS 3 Zrotation Xrotation Yrotation
                  End Site
                  {
                    OFFSET -2.33842 -0.294052 0.168128
                  }
                }
              }
              JOINT rPinky1
              {
                OFFSET -8.27202 -0.0477905 -0.4584
                CHANNELS 3 Zrotation Xrotation Yrotation
                JOINT rPinky2
                {
                  OFFSET -1.82734 -0.647385 -0.700984
                  CHANNELS 3 Zrotation Xrotation Yrotation
                  End Site
                  {
                    OFFSET -1.69225 -0.51767 -0.607171
                  }
                }
              }
            }
          }
        }
      }
      JOINT lCollar
      {
        OFFSET 2.68224 19.2634 -4.8768
        CHANNELS 3 Zrotation Xrotation Yrotation
        JOINT lShldr
        {
          OFFSET 8.77824 -1.95073 1.46304
          CHANNELS 3 Zrotation Xrotation Yrotation
          JOINT lForeArm
          {
            OFFSET 28.1742 -1.7115 0.48768
            CHANNELS 3 Zrotation Xrotation Yrotation
            JOINT lHand
            {
              OFFSET 22.5879 0.773209 7.07136
              CHANNELS 3 Zrotation Xrotation Yrotation
              JOINT lThumb1
              {
                OFFSET 1.2192 -0.487915 3.41376
                CHANNELS 3 Zrotation Xrotation Yrotation
                JOINT lThumb2
                {
                  OFFSET 3.37035 -0.52449 3.41376
                  CHANNELS 3 Zrotation Xrotation Yrotation
                  End Site
                  {
                    OFFSET 1.78271 -1.18214 1.43049
                  }
                }
              }
              JOINT lIndex1
              {
                OFFSET 7.75947 0.938293 5.60832
                CHANNELS 3 Zrotation Xrotation Yrotation
                JOINT lIndex2
                {
                  OFFSET 2.54057 -0.884171 1.56538
                  CHANNELS 3 Zrotation Xrotation Yrotation
                  End Site
                  {
                    OFFSET 1.62519 -0.234802 1.16502
                  }
                }
              }
              JOINT lMid1
              {
                OFFSET 8.24714 1.18213 3.41376
                CHANNELS 3 Zrotation Xrotation Yrotation
                JOINT lMid2
                {
                  OFFSET 3.10165 -0.590103 1.0647
                  CHANNELS 3 Zrotation Xrotation Yrotation
                  End Site
                  {
                    OFFSET 2.48547 -0.328903 0.83742
                  }
                }
              }
              JOINT lRing1
              {
                OFFSET 8.82822 0.546677 1.51678
                CHANNELS 3 Zrotation Xrotation Yrotation
                JOINT lRing2
                {
                  OFFSET 2.60934 -0.819778 -0.0198488
                  CHANNELS 3 Zrotation Xrotation Yrotation
                  End Site
                  {
                    OFFSET 2.33842 -0.294052 0.168128
                  }
                }
              }
              JOINT lPinky1
              {
                OFFSET 8.27202 -0.0477905 -0.4584
                CHANNELS 3 Zrotation Xrotation Yrotation
                JOINT lPinky2
                {
                  OFFSET 1.82734 -0.647385 -0.700984
                  CHANNELS 3 Zrotation Xrotation Yrotation
                  End Site
                  {
                    OFFSET 1.69225 -0.51767 -0.607171
                  }
                }
              }
            }
          }
        }
      }
    }
  }
  JOINT rButtock
  {
    OFFSET -8.77824 4.35084 1.2192
    CHANNELS 3 Zrotation Xrotation Yrotation
    JOINT rThigh
    {
      OFFSET 0 -1.70687 -2.19456
      CHANNELS 3 Zrotation Xrotation Yrotation
      JOINT rShin
      {
        OFFSET 0 -36.8199 0.73152
        CHANNELS 3 Zrotation Xrotation Yrotation
        JOINT rFoot
        {
          OFFSET 0.73152 -45.1104 -5.12064
          CHANNELS 3 Zrotation Xrotation Yrotation
          End Site
          {
            OFFSET -1.1221 -3.69964 12.103
          }
        }
      }
    }
  }
  JOINT lButtock
  {
    OFFSET 8.77824 4.35084 1.2192
    CHANNELS 3 Zrotation Xrotation Yrotation
    JOINT lThigh
    {
      OFFSET 0 -1.70687 -2.19456
      CHANNELS 3 Zrotation Xrotation Yrotation
      JOINT lShin
      {
        OFFSET 0 -36.8199 0.73152
        CHANNELS 3 Zrotation Xrotation Yrotation
        JOINT lFoot
        {
          OFFSET -0.73152 -45.1104 -5.12064
          CHANNELS 3 Zrotation Xrotation Yrotation
          End Site
          {
            OFFSET 1.1221 -3.69964 12.103
          }
        }
      }
    }
  }
}
MOTION
Frames:	4
Frame Time:	0.03333
26.9456 78.4726 -37.8658 -177.590126 35.888476 163.96394 -8.381834 42.226417 5.396001 4.525691 -9.969389 -5.388909 -10.97968 27.673856 -93.999581 45.701252 13.293465 77.186397 0.001775 -0.0 -0.001452 0.001827 -0.0 -0.004928 -41.242628 -86.118531 -62.793717 -101.057979 -38.814848 -109.589446 -2.610344 12.59625 -147.813896 173.091219 -20.801241 143.034774 -169.562298 -7.243009 89.929412 -163.087449 -3.397303 84.913103 -173.764191 -52.872463 119.824878 -83.710379 55.782146 68.692724 -174.671052 -47.954041 144.479009 -169.089664 -21.917625 143.967669 -145.119746 0.267363 -179.213194 -67.004967 87.68403 80.250466 -54.047712 -50.329601 -52.728415 -84.460434 -53.225647 -84.896332 149.905287 22.421906 -154.975656 146.010557 87.343704 -97.142641 99.759175 3.577248 -175.155005 -32.935176 -66.284379 -18.947806 170.593721 -8.277705 -89.94945 135.199785 10.21578 -67.192557 -45.281944 -63.865662 -4.305578 156.439279 -14.812726 -114.278686 36.037105 51.721951 -29.834838 34.328022 55.123575 -29.128897 73.626457 72.97285 -91.553886 95.369879 82.877957 -104.414545 144.109943 8.782017 140.874015 -1.279918 -2.683631 2.845226 0.000518 -3.4e-05 -0.000666 -109.35481 -79.275988 70.530353 178.010657 -57.315632 51.330138 -158.766338 -34.049325 83.769104 -0.000224 0.001315 0.000288 0.86549 -19.641218 -177.426663 27.941846 -65.232376 130.07341 170.727845 -26.977128 -106.513168
29.153299999999998 81.6861 -40.6232 -175.208118 31.160648 157.848508 0.35125 44.926045 -106.695404 6.208557 4.655572 97.758018 10.048757 29.976125 122.163738 -36.304602 30.572008 -125.968954 0.004387 0.0 0.001444 -0.001353 0.0 -0.001692 -28.503439 57.371395 30.876528 -111.322808 12.542207 123.042726 88.279801 -49.072285 -89.103652 -157.4089 47.327629 130.998614 -85.829765 38.631353 47.955144 -33.280417 -4.235189 38.111284 167.116709 -67.038987 108.166872 12.533271 6.191549 -7.050523 -8.417097 20.880051 5.647021 -7.23833 26.206493 6.043244 7e-06 -0.018567 -0.005607 10.315082 0.235442 -0.036899 8.143496 25.599869 7.178064 14.210045 41.869254 8.331597 0.049122 0.292451 -0.064411 110.247428 -9.628391 -141.829023 -83.411481 11.966475 112.998037 143.164993 59.064526 -118.750248 98.858322 37.197306 -57.120938 -8.187297 -23.95148 -24.700979 -24.075928 -42.306446 5.558743 173.064104 -35.604725 -108.559159 125.644923 49.839992 -115.273747 -5.36686 -5.834871 0.42599 145.118465 0.309852 179.226241 71.287844 -78.001793 92.776309 151.766866 35.622182 147.262385 81.666171 -52.587057 80.717551 0.000481 -0.000218 0.000963 -139.665139 -73.114945 0.0 135.745281 -33.955993 67.700878 -105.75558 -12.487124 174.515258 -0.00737 0.000789 -0.00737 4.645607 -5.713912 -140.779605 -45.140138 -55.379682 10.194751 -136.156667 52.212351 -137.760917
29.2142 83.54589999999999 -41.6048 -173.991979 28.245806 155.452746 0.840957 47.023646 -0.591407 6.07827 -9.325089 -8.763402 -0.416408 36.126745 -169.627424 8.684941 46.003387 152.784055 0.001355 -0.0 -9.6e-05 0.001304 -0.0 -0.003549 -152.128619 14.112815 157.555748 -66.852513 50.823167 35.325281 138.688712 0.596105 -36.466524 -78.190837 69.308455 57.512121 -169.318668 -7.001174 89.922544 -88.480901 8.7747 33.666065 -149.659223 -14.028981 120.543494 -23.925066 45.510095 12.163402 -150.786172 19.326575 137.02738 -158.242186 9.289573 140.91328 0.000261 -0.060727 -0.019901 11.046112 -12.236569 -1.531872 -43.363946 -47.544914 -42.164141 -20.985658 -38.8648 -22.870474 159.210486 -46.728576 -170.137555 3.460321 -0.723273 51.848041 -0.366142 -43.83524 97.50397 -177.833828 -13.655225 -143.420092 94.792244 37.828204 -54.283213 153.505392 -29.501862 -79.315756 148.886349 -12.610185 -120.243762 99.272822 54.210798 -79.123013 156.688038 5.002338 -141.074776 176.763865 -42.238995 -142.392588 75.94457 -72.111091 93.113364 51.760093 -81.979844 77.611975 1.175949 -2.98556 1.093095 127.270461 -31.006197 125.738883 0.022354 0.000862 0.016766 -155.945722 -71.534577 -180.0 -106.591304 40.473168 19.896552 -39.561875 -71.830768 60.461722 -0.00242 -0.000851 -0.00121 5.226576 1.427563 105.234953 64.14826 -12.616357 53.274991 19.547376 62.015958 -143.275968
30.835600000000003 84.0679 -42.6019 -174.325888 27.316604 153.991113 -0.904086 41.281549 -180.0 -7.090993 3.347795 173.052837 -5.584482 16.201726 -11.892467 12.103196 -21.906494 -0.087812 -0.001143 -0.0 0.000832 -0.001306 -0.0 0.005297 -158.897548 -36.946544 168.196457 -102.56657 -69.962509 -82.091046 -175.509967 -38.611042 -68.077125 -8.288545 9.415273 -1.253559 -171.603419 -9.286138 89.950617 -34.531563 -27.19549 4.672724 18.524811 -33.243237 -5.981214 -20.438028 37.876702 16.850369 -0.217819 0.638857 0.121665 91.951677 -78.576057 62.95317 -145.120267 0.268226 -179.211434 -138.630267 -60.71724 -160.674878 -144.259653 9.238055 -141.009204 3.739124 3.545969 -0.93284 -2.53014 -18.881251 3.793378 -64.547628 13.451632 -21.542284 5.017645 18.253233 -67.979603 6.171946 -0.0293 2.247796 179.372873 -16.877367 -89.359682 22.139694 -40.979242 1.711558 140.762704 1.379971 -116.228307 -82.116346 -68.920338 -32.194211 169.088613 -33.247607 -145.374645 5.186824 21.24024 -4.79132 145.119044 0.184841 179.187875 -11.209804 13.961734 7.352321 121.350196 -32.871649 119.205682 75.626858 -53.315144 76.079144 -179.998063 75.749743 -0.0 172.992055 -29.56609 166.010922 56.294002 -42.416747 162.636724 70.574584 45.464068 15.016134 -0.000858 -0.00021 0.001103 3.083979 3.509764 88.666037 62.791872 2.473588 59.357426 -77.038916 -37.34689 -160.80442
